{"asset":{"version":"2.0","generator":"hole-in-fun-tree-gen/1.0.0"},"scene":0,"scenes":[{"nodes":[0,1]}],"nodes":[{"mesh":0,"name":"bark"},{"mesh":1,"name":"foliage"}],"meshes":[{"name":"bark","primitives":[{"attributes":{"POSITION":0,"NORMAL":1,"COLOR_0":2,"TEXCOORD_0":3},"indices":4,"mode":4}]},{"name":"foliage","primitives":[{"attributes":{"POSITION":5,"NORMAL":6,"COLOR_0":7,"TEXCOORD_0":8},"indices":9,"mode":4}]}],"accessors":[{"bufferView":0,"componentType":5126,"count":212,"type":"VEC3","max":[0.6573150144116209,4.606944431746379,0.4929061787443245],"min":[-0.5776183976641702,0.0,-0.75552273120741]},{"bufferView":1,"componentType":5126,"count":212,"type":"VEC3"},{"bufferView":2,"componentType":5121,"count":212,"type":"VEC4","normalized":true},{"bufferView":3,"componentType":5126,"count":212,"type":"VEC2"},{"bufferView":4,"componentType":5123,"count":636,"type":"SCALAR"},{"bufferView":5,"componentType":5126,"count":640,"type":"VEC3","max":[1.9295859160769182,5.28452206169255,2.1155422940485575],"min":[-1.8745118735697777,3.0459786848917068,-1.9651227324865772]},{"bufferView":6,"componentType":5126,"count":640,"type":"VEC3"},{"bufferView":7,"componentType":5121,"count":640,"type":"VEC4","normalized":true},{"bufferView":8,"componentType":5126,"count":640,"type":"VEC2"},{"bufferView":9,"componentType":5123,"count":2880,"type":"SCALAR"}],"bufferViews":[{"buffer":0,"byteOffset":0,"byteLength":2544,"target":34962},{"buffer":0,"byteOffset":2544,"byteLength":2544,"target":34962},{"buffer":0,"byteOffset":5088,"byteLength":848,"target":34962},{"buffer":0,"byteOffset":5936,"byteLength":1696,"target":34962},{"buffer":0,"byteOffset":7632,"byteLength":1272,"target":3493},{"buffer":0,"byteOffset":8904,"byteLength":7680,"target":34962},{"buffer":0,"byteOffset":16584,"byteLength":7680,"target":34962},{"buffer":0,"byteOffset":24264,"byteLength":2560,"target":34962},{"buffer":0,"byteOffset":26824,"byteLength":5120,"target":34962},{"buffer":0,"byteOffset":31944,"byteLength":5760,"target":3493}],"buffers":[{"byteLength":37704,"uri":"data:application/octet-stream;base64,"}]}