{"asset":{"version":"2.0","generator":"hole-in-fun-tree-gen/1.0.0"},"scene":0,"scenes":[{"nodes":[0,1]}],"nodes":[{"mesh":0,"name":"bark"},{"mesh":1,"name":"foliage"}],"meshes":[{"name":"bark","primitives":[{"attributes":{"POSITION":0,"NORMAL":1,"COLOR_0":2,"TEXCOORD_0":3},"indices":4,"mode":4}]},{"name":"foliage","primitives":[{"attributes":{"POSITION":5,"NORMAL":6,"COLOR_0":7,"TEXCOORD_0":8},"indices":9,"mode":4}]}],"accessors":[{"bufferView":0,"componentType":5126,"count":132,"type":"VEC3","max":[0.6320910852588821,3.9003838293021547,0.24727469423673995],"min":[-0.27192184183775125,0.0,-0.5335442203068349]},{"bufferView":1,"componentType":5126,"count":132,"type":"VEC3"},{"bufferView":2,"componentType":5121,"count":132,"type":"VEC4","normalized":true},{"bufferView":3,"componentType":5126,"count":132,"type":"VEC2"},{"bufferView":4,"componentType":5123,"count":396,"type":"SCALAR"},{"bufferView":5,"componentType":5126,"count":180,"type":"VEC3","max":[2.047830926295048,5.1166704697736565,1.2058397740511055],"min":[-1.633575256482695,3.2941479293197813,-1.6322072319516836]},{"bufferView":6,"componentType":5126,"count":180,"type":"VEC3"},{"bufferView":7,"componentType":5121,"count":180,"type":"VEC4","normalized":true},{"bufferView":8,"componentType":5126,"count":180,"type":"VEC2"},{"bufferView":9,"componentType":5123,"count":720,"type":"SCALAR"}],"bufferViews":[{"buffer":0,"byteOffset":0,"byteLength":1584,"target":34962},{"buffer":0,"byteOffset":1584,"byteLength":1584,"target":34962},{"buffer":0,"byteOffset":3168,"byteLength":528,"target":34962},{"buffer":0,"byteOffset":3696,"byteLength":1056,"target":34962},{"buffer":0,"byteOffset":4752,"byteLength":792,"target":3493},{"buffer":0,"byteOffset":5544,"byteLength":2160,"target":34962},{"buffer":0,"byteOffset":7704,"byteLength":2160,"target":34962},{"buffer":0,"byteOffset":9864,"byteLength":720,"target":34962},{"buffer":0,"byteOffset":10584,"byteLength":1440,"target":34962},{"buffer":0,"byteOffset":12024,"byteLength":1440,"target":3493}],"buffers":[{"byteLength":13464,"uri":"data:application/octet-stream;base64,"}]}