{"asset":{"version":"2.0","generator":"hole-in-fun-tree-gen/1.0.0"},"scene":0,"scenes":[{"nodes":[0,1]}],"nodes":[{"mesh":0,"name":"bark"},{"mesh":1,"name":"foliage"}],"meshes":[{"name":"bark","primitives":[{"attributes":{"POSITION":0,"NORMAL":1,"COLOR_0":2,"TEXCOORD_0":3},"indices":4,"mode":4}]},{"name":"foliage","primitives":[{"attributes":{"POSITION":5,"NORMAL":6,"COLOR_0":7,"TEXCOORD_0":8},"indices":9,"mode":4}]}],"accessors":[{"bufferView":0,"componentType":5126,"count":212,"type":"VEC3","max":[0.7305850706401082,4.578430856317282,0.6231624241601166],"min":[-0.7332454594165077,0.0,-0.5036191285037075]},{"bufferView":1,"componentType":5126,"count":212,"type":"VEC3"},{"bufferView":2,"componentType":5121,"count":212,"type":"VEC4","normalized":true},{"bufferView":3,"componentType":5126,"count":212,"type":"VEC2"},{"bufferView":4,"componentType":5123,"count":636,"type":"SCALAR"},{"bufferView":5,"componentType":5126,"count":640,"type":"VEC3","max":[2.117205288875449,5.278242299681734,2.1437394007405963],"min":[-1.703345743871815,3.2200789607491993,-1.9552145513591643]},{"bufferView":6,"componentType":5126,"count":640,"type":"VEC3"},{"bufferView":7,"componentType":5121,"count":640,"type":"VEC4","normalized":true},{"bufferView":8,"componentType":5126,"count":640,"type":"VEC2"},{"bufferView":9,"componentType":5123,"count":2880,"type":"SCALAR"}],"bufferViews":[{"buffer":0,"byteOffset":0,"byteLength":2544,"target":34962},{"buffer":0,"byteOffset":2544,"byteLength":2544,"target":34962},{"buffer":0,"byteOffset":5088,"byteLength":848,"target":34962},{"buffer":0,"byteOffset":5936,"byteLength":1696,"target":34962},{"buffer":0,"byteOffset":7632,"byteLength":1272,"target":3493},{"buffer":0,"byteOffset":8904,"byteLength":7680,"target":34962},{"buffer":0,"byteOffset":16584,"byteLength":7680,"target":34962},{"buffer":0,"byteOffset":24264,"byteLength":2560,"target":34962},{"buffer":0,"byteOffset":26824,"byteLength":5120,"target":34962},{"buffer":0,"byteOffset":31944,"byteLength":5760,"target":3493}],"buffers":[{"byteLength":37704,"uri":"data:application/octet-stream;base64,"}]}