{"asset":{"version":"2.0","generator":"hole-in-fun-tree-gen/1.0.0"},"scene":0,"scenes":[{"nodes":[0]}],"nodes":[{"mesh":0,"name":"bark"}],"meshes":[{"name":"bark","primitives":[{"attributes":{"POSITION":0,"NORMAL":1,"COLOR_0":2,"TEXCOORD_0":3},"indices":4,"mode":4}]}],"accessors":[{"bufferView":0,"componentType":5126,"count":170,"type":"VEC3","max":[1.5118417277536187,4.9899201231826,1.5503296174071182],"min":[-1.587125489492199,0.0,-1.5505178336820233]},{"bufferView":1,"componentType":5126,"count":170,"type":"VEC3"},{"bufferView":2,"componentType":5121,"count":170,"type":"VEC4","normalized":true},{"bufferView":3,"componentType":5126,"count":170,"type":"VEC2"},{"bufferView":4,"componentType":5123,"count":792,"type":"SCALAR"}],"bufferViews":[{"buffer":0,"byteOffset":0,"byteLength":2040,"target":34962},{"buffer":0,"byteOffset":2040,"byteLength":2040,"target":34962},{"buffer":0,"byteOffset":4080,"byteLength":680,"target":34962},{"buffer":0,"byteOffset":4760,"byteLength":1360,"target":34962},{"buffer":0,"byteOffset":6120,"byteLength":1584,"target":3493}],"buffers":[{"byteLength":7704,"uri":"data:application/octet-stream;base64,"}]}