{"asset":{"version":"2.0","generator":"hole-in-fun-tree-gen/1.0.0"},"scene":0,"scenes":[{"nodes":[0,1]}],"nodes":[{"mesh":0,"name":"bark"},{"mesh":1,"name":"foliage"}],"meshes":[{"name":"bark","primitives":[{"attributes":{"POSITION":0,"NORMAL":1,"COLOR_0":2,"TEXCOORD_0":3},"indices":4,"mode":4}]},{"name":"foliage","primitives":[{"attributes":{"POSITION":5,"NORMAL":6,"COLOR_0":7,"TEXCOORD_0":8},"indices":9,"mode":4}]}],"accessors":[{"bufferView":0,"componentType":5126,"count":40,"type":"VEC3","max":[0.26056704839766026,3.2,0.24727469423673995],"min":[-0.26,0.0,-0.24727469423673995]},{"bufferView":1,"componentType":5126,"count":40,"type":"VEC3"},{"bufferView":2,"componentType":5121,"count":40,"type":"VEC4","normalized":true},{"bufferView":3,"componentType":5126,"count":40,"type":"VEC2"},{"bufferView":4,"componentType":5123,"count":120,"type":"SCALAR"},{"bufferView":5,"componentType":5126,"count":90,"type":"VEC3","max":[1.2112620704938897,5.68834616246482,1.2012716882707901],"min":[-1.0417079679154955,3.258080635716325,-1.074445221217141]},{"bufferView":6,"componentType":5126,"count":90,"type":"VEC3"},{"bufferView":7,"componentType":5121,"count":90,"type":"VEC4","normalized":true},{"bufferView":8,"componentType":5126,"count":90,"type":"VEC2"},{"bufferView":9,"componentType":5123,"count":360,"type":"SCALAR"}],"bufferViews":[{"buffer":0,"byteOffset":0,"byteLength":480,"target":34962},{"buffer":0,"byteOffset":480,"byteLength":480,"target":34962},{"buffer":0,"byteOffset":960,"byteLength":160,"target":34962},{"buffer":0,"byteOffset":1120,"byteLength":320,"target":34962},{"buffer":0,"byteOffset":1440,"byteLength":240,"target":3493},{"buffer":0,"byteOffset":1680,"byteLength":1080,"target":34962},{"buffer":0,"byteOffset":2760,"byteLength":1080,"target":34962},{"buffer":0,"byteOffset":3840,"byteLength":360,"target":34962},{"buffer":0,"byteOffset":4200,"byteLength":720,"target":34962},{"buffer":0,"byteOffset":4920,"byteLength":720,"target":3493}],"buffers":[{"byteLength":5640,"uri":"data:application/octet-stream;base64,"}]}