{"asset":{"version":"2.0","generator":"hole-in-fun-tree-gen/1.0.0"},"scene":0,"scenes":[{"nodes":[0,1]}],"nodes":[{"mesh":0,"name":"bark"},{"mesh":1,"name":"foliage"}],"meshes":[{"name":"bark","primitives":[{"attributes":{"POSITION":0,"NORMAL":1,"COLOR_0":2,"TEXCOORD_0":3},"indices":4,"mode":4}]},{"name":"foliage","primitives":[{"attributes":{"POSITION":5,"NORMAL":6,"COLOR_0":7,"TEXCOORD_0":8},"indices":9,"mode":4}]}],"accessors":[{"bufferView":0,"componentType":5126,"count":212,"type":"VEC3","max":[0.8272265078904317,4.697685611536727,0.5118777595449173],"min":[-0.4668869248127393,0.0,-0.8290584379699872]},{"bufferView":1,"componentType":5126,"count":212,"type":"VEC3"},{"bufferView":2,"componentType":5121,"count":212,"type":"VEC4","normalized":true},{"bufferView":3,"componentType":5126,"count":212,"type":"VEC2"},{"bufferView":4,"componentType":5123,"count":636,"type":"SCALAR"},{"bufferView":5,"componentType":5126,"count":640,"type":"VEC3","max":[2.20727140071699,5.334725349693763,1.5780597876145215],"min":[-1.881077738005758,3.0907878402161084,-1.8835307518704276]},{"bufferView":6,"componentType":5126,"count":640,"type":"VEC3"},{"bufferView":7,"componentType":5121,"count":640,"type":"VEC4","normalized":true},{"bufferView":8,"componentType":5126,"count":640,"type":"VEC2"},{"bufferView":9,"componentType":5123,"count":2880,"type":"SCALAR"}],"bufferViews":[{"buffer":0,"byteOffset":0,"byteLength":2544,"target":34962},{"buffer":0,"byteOffset":2544,"byteLength":2544,"target":34962},{"buffer":0,"byteOffset":5088,"byteLength":848,"target":34962},{"buffer":0,"byteOffset":5936,"byteLength":1696,"target":34962},{"buffer":0,"byteOffset":7632,"byteLength":1272,"target":3493},{"buffer":0,"byteOffset":8904,"byteLength":7680,"target":34962},{"buffer":0,"byteOffset":16584,"byteLength":7680,"target":34962},{"buffer":0,"byteOffset":24264,"byteLength":2560,"target":34962},{"buffer":0,"byteOffset":26824,"byteLength":5120,"target":34962},{"buffer":0,"byteOffset":31944,"byteLength":5760,"target":3493}],"buffers":[{"byteLength":37704,"uri":"data:application/octet-stream;base64,"}]}