{"asset":{"version":"2.0","generator":"hole-in-fun-tree-gen/1.0.0"},"scene":0,"scenes":[{"nodes":[0,1]}],"nodes":[{"mesh":0,"name":"bark"},{"mesh":1,"name":"foliage"}],"meshes":[{"name":"bark","primitives":[{"attributes":{"POSITION":0,"NORMAL":1,"COLOR_0":2,"TEXCOORD_0":3},"indices":4,"mode":4}]},{"name":"foliage","primitives":[{"attributes":{"POSITION":5,"NORMAL":6,"COLOR_0":7,"TEXCOORD_0":8},"indices":9,"mode":4}]}],"accessors":[{"bufferView":0,"componentType":5126,"count":20,"type":"VEC3","max":[0.22,4.1,0.2092324335849338],"min":[-0.22,0.0,-0.2552306984688511]},{"bufferView":1,"componentType":5126,"count":20,"type":"VEC3"},{"bufferView":2,"componentType":5121,"count":20,"type":"VEC4","normalized":true},{"bufferView":3,"componentType":5126,"count":20,"type":"VEC2"},{"bufferView":4,"componentType":5123,"count":60,"type":"SCALAR"},{"bufferView":5,"componentType":5126,"count":27,"type":"VEC3","max":[1.5754971567120715,4.34,1.2386333351386833],"min":[-1.2280764213751112,1.55,-1.1388302725823047]},{"bufferView":6,"componentType":5126,"count":27,"type":"VEC3"},{"bufferView":7,"componentType":5121,"count":27,"type":"VEC4","normalized":true},{"bufferView":8,"componentType":5126,"count":27,"type":"VEC2"},{"bufferView":9,"componentType":5123,"count":72,"type":"SCALAR"}],"bufferViews":[{"buffer":0,"byteOffset":0,"byteLength":240,"target":34962},{"buffer":0,"byteOffset":240,"byteLength":240,"target":34962},{"buffer":0,"byteOffset":480,"byteLength":80,"target":34962},{"buffer":0,"byteOffset":560,"byteLength":160,"target":34962},{"buffer":0,"byteOffset":720,"byteLength":120,"target":3493},{"buffer":0,"byteOffset":840,"byteLength":324,"target":34962},{"buffer":0,"byteOffset":1164,"byteLength":324,"target":34962},{"buffer":0,"byteOffset":1488,"byteLength":108,"target":34962},{"buffer":0,"byteOffset":1596,"byteLength":216,"target":34962},{"buffer":0,"byteOffset":1812,"byteLength":144,"target":3493}],"buffers":[{"byteLength":1956,"uri":"data:application/octet-stream;base64,"}]}