{"asset":{"version":"2.0","generator":"hole-in-fun-tree-gen/1.0.0"},"scene":0,"scenes":[{"nodes":[0,1]}],"nodes":[{"mesh":0,"name":"bark"},{"mesh":1,"name":"foliage"}],"meshes":[{"name":"bark","primitives":[{"attributes":{"POSITION":0,"NORMAL":1,"COLOR_0":2,"TEXCOORD_0":3},"indices":4,"mode":4}]},{"name":"foliage","primitives":[{"attributes":{"POSITION":5,"NORMAL":6,"COLOR_0":7,"TEXCOORD_0":8},"indices":9,"mode":4}]}],"accessors":[{"bufferView":0,"componentType":5126,"count":28,"type":"VEC3","max":[0.22,4.1,0.21448414068000118],"min":[-0.22,0.0,-0.21448414068000118]},{"bufferView":1,"componentType":5126,"count":28,"type":"VEC3"},{"bufferView":2,"componentType":5121,"count":28,"type":"VEC4","normalized":true},{"bufferView":3,"componentType":5126,"count":28,"type":"VEC2"},{"bufferView":4,"componentType":5123,"count":84,"type":"SCALAR"},{"bufferView":5,"componentType":5126,"count":192,"type":"VEC3","max":[1.6314569773931213,6.007884687700104,1.3031323547119693],"min":[-1.2577813558613449,0.9409276964197215,-1.1743846496747459]},{"bufferView":6,"componentType":5126,"count":192,"type":"VEC3"},{"bufferView":7,"componentType":5121,"count":192,"type":"VEC4","normalized":true},{"bufferView":8,"componentType":5126,"count":192,"type":"VEC2"},{"bufferView":9,"componentType":5123,"count":864,"type":"SCALAR"}],"bufferViews":[{"buffer":0,"byteOffset":0,"byteLength":336,"target":34962},{"buffer":0,"byteOffset":336,"byteLength":336,"target":34962},{"buffer":0,"byteOffset":672,"byteLength":112,"target":34962},{"buffer":0,"byteOffset":784,"byteLength":224,"target":34962},{"buffer":0,"byteOffset":1008,"byteLength":168,"target":3493},{"buffer":0,"byteOffset":1176,"byteLength":2304,"target":34962},{"buffer":0,"byteOffset":3480,"byteLength":2304,"target":34962},{"buffer":0,"byteOffset":5784,"byteLength":768,"target":34962},{"buffer":0,"byteOffset":6552,"byteLength":1536,"target":34962},{"buffer":0,"byteOffset":8088,"byteLength":1728,"target":3493}],"buffers":[{"byteLength":9816,"uri":"data:application/octet-stream;base64,"}]}