{"asset":{"version":"2.0","generator":"hole-in-fun-tree-gen/1.0.0"},"scene":0,"scenes":[{"nodes":[0]}],"nodes":[{"mesh":0,"name":"bark"}],"meshes":[{"name":"bark","primitives":[{"attributes":{"POSITION":0,"NORMAL":1,"COLOR_0":2,"TEXCOORD_0":3},"indices":4,"mode":4}]}],"accessors":[{"bufferView":0,"componentType":5126,"count":46,"type":"VEC3","max":[1.0785935642197728,5.5,1.0246990567404184],"min":[-1.0214064357802273,0.0,-0.9725196274794045]},{"bufferView":1,"componentType":5126,"count":46,"type":"VEC3"},{"bufferView":2,"componentType":5121,"count":46,"type":"VEC4","normalized":true},{"bufferView":3,"componentType":5126,"count":46,"type":"VEC2"},{"bufferView":4,"componentType":5123,"count":129,"type":"SCALAR"}],"bufferViews":[{"buffer":0,"byteOffset":0,"byteLength":552,"target":34962},{"buffer":0,"byteOffset":552,"byteLength":552,"target":34962},{"buffer":0,"byteOffset":1104,"byteLength":184,"target":34962},{"buffer":0,"byteOffset":1288,"byteLength":368,"target":34962},{"buffer":0,"byteOffset":1656,"byteLength":258,"target":3493}],"buffers":[{"byteLength":1914,"uri":"data:application/octet-stream;base64,"}]}